<svg width="100" height="50" viewBox="0 0 100 50" fill="none" xmlns="http://www.w3.org/2000/svg">
<path d="M26.9001 20.1L21.1001 41.4H26.1001L31.9001 20.1H26.9001Z" fill="black"/>
<path d="M73.2 20.1L67.5 41.4H72.4L78.2 20.1H73.2Z" fill="black"/>
<path d="M52.2 12.7L50.2 20.1H43.2L45.2 12.7H40.3L38.3 20.1H34.7L33.7 23.9H37.2L32.5 41.4H37.5L42.2 23.9H49.2L44.4 41.4H49.4L54.2 23.9H57.7L58.7 20.1H55.2L57.2 12.7H52.2Z" fill="black"/>
<path d="M22.8 23.9L23.8 20.1H19L19.2 19.5C19.9 16.8 22.6 14.5 25.5 14L26.9 9C21.7 9 16.2 13.3 14.8 18.3L14.3 20.1H10.6L9.60005 23.9H13.3L8.30005 41.4H13.3L18 23.9H22.8Z" fill="black"/>
<path d="M33.9001 12.7H28.9001L27.6001 17.4H32.6001L33.9001 12.7Z" fill="black"/>
<path d="M80.2 12.7H75.2L74 17.4H79L80.2 12.7Z" fill="black"/>
<path d="M70.7 19.4C65.5 19.4 60 23.7 58.6 28.7L55 41.4H59.9L63 29.8C63.7 27.1 66.4 24.8 69.3 24.3L70.7 19.4Z" fill="black"/>
<path d="M95.0001 20.1H90.0001L86.6001 25L85.8001 20.1H81.0001L82.6001 30.6L75.1001 41.4H80.1001L83.5001 36.5L84.3001 41.4H89.1001L87.5001 30.8L95.0001 20.1Z" fill="black"/>
</svg>
